/* XPM */
static char * coin_3_xpm[] = {
"32 32 6 1",
".	c #000000",
".	c #000000",
"+	c #000000",
"@	c #FAFF6B",
"#	c #FDFFBA",
"$	c #FEE761",
"             ++++++             ",
"             ++@@++             ",
"            +@@@@@@+            ",
"           +@#@$$@@@+           ",
"           +@@$##$@@+           ",
"          +#@$####$@@+          ",
"          +@$######$@+          ",
"         +#@$######$@@+         ",
"         +@$###$$#@@$@+         ",
"         +@$###$$@##$@+         ",
"        +@@$#@@$$##@$@@+        ",
"        +#$#@@$$$$@@@$@+        ",
"        +#$@@#$$$$@@@$@+        ",
"        +@$@##$$$$@@@$@+        ",
"        +@$##@$$$@@@@$@+        ",
"        +#$#@@$$$$@@@$@+        ",
"        +@$#@@$$$$@@@$@+        ",
"        +@$#@@@$$$@@@$@+        ",
"        +@$@@@$$$$@@@$@+        ",
"        +@$@@@$$$$@@@$@+        ",
"        +@$@@@$$$$@@@$@+        ",
"        +@@$@@@$$@@@$@@+        ",
"         +@$@@@$$@@@$@+         ",
"         +@$@@@$$@@@$@+         ",
"         +@@$@@@@@@$@@+         ",
"          +@$@@@@@@$@+          ",
"          +@@$@@@@$@@+          ",
"           +@@$@@$@@+           ",
"           +@@@$$@@@+           ",
"            +@@@@@@+            ",
"             ++@@++             ",
"             ++++++             "};
