/* XPM */
static char * coin_1_xpm[] = {
"32 32 6 1",
".	c #000000",
".	c #000000",
"+	c #000000",
"@	c #FDFFBA",
"#	c #FAFF6B",
"$	c #FEE761",
"               ++               ",
"             ++@#++             ",
"            +##@###+            ",
"           +@##$$###+           ",
"           +@#$@@$##+           ",
"          +##$@@@@$##+          ",
"          +#$@@@@@@$#+          ",
"         +@#$@@@@@@$##+         ",
"         +@$@@@$$@@@$#+         ",
"         +#$@@@$$@@@$#+         ",
"        +##$@@@$$@@@$##+        ",
"        +#$@@@$$$$@@@$#+        ",
"        +#$@@@$$$$@@#$#+        ",
"        +#$@@@$$$$###$#+        ",
"        +#$@@@$$$####$#+        ",
"        +#$@@@$$$$###$#+        ",
"        +#$@##$$$$###$#+        ",
"        +#$####$$$###$#+        ",
"        +#$###$$$$###$#+        ",
"        +#$###$$$$###$#+        ",
"        +#$###$$$$###$#+        ",
"        +##$###$$###$##+        ",
"         +#$###$$###$#+         ",
"         +#$###$$###$#+         ",
"         +##$######$##+         ",
"          +#$######$#+          ",
"          +##$####$##+          ",
"           +##$##$##+           ",
"           +###$$###+           ",
"            +######+            ",
"             ++##++             ",
"               ++               "};
