/* XPM */
static char * char_2_up_xpm[] = {
"32 32 9 1",
" 	c None",
".	c #000000",
"+	c #0E0D0E",
"@	c #D2202C",
"#	c #7C776F",
"$	c #EADFD1",
"%	c #B3AAA1",
"&	c #EBA724",
"*	c #0A7030",
"                                ",
"                                ",
"             ++++++++++++       ",
"           +++@@@@@@@@@@+       ",
"           +++@@@@@@@@@@+       ",
"           ++@@@@@@++++++       ",
"           ++@@@@@@++++++       ",
"       +++++++@@@@++++          ",
"       +########$$$$$+          ",
"       +########$$$$$+          ",
"     ++++++++++++++$$+          ",
"     ++%%%%%%$$$$$+##+          ",
"     ++%%%%%%$$$$$+##+          ",
"     ++%++%++%++$$+##+          ",
"     ++%++%++%++%%+##+          ",
"     ++%++%++%++%%+##+          ",
"     ++%++%++%++%%+##+          ",
"     ++%%%%%%%%%%%+##+          ",
"     ++%%%%%%%%%%%+##+          ",
"     +++++++++++++++++++        ",
"     +++++++++++++++++++        ",
"       +&&&&&&&&&&****++        ",
"       +++++++++&&****++        ",
"       +++++++++&&****++        ",
"       +######++&&****++        ",
"       +######++&&****++        ",
"       +######++&&****++        ",
"       +++%+++++&&&&&&++        ",
"        +++++ ++++++++++        ",
"        +++++ ++++++++++        ",
"                                ",
"                                "};
