/* XPM */
static char * char_1_up_xpm[] = {
"32 32 9 1",
" 	c None",
".	c #000000",
"+	c #0E0D0E",
"@	c #D2202C",
"#	c #EADFD1",
"$	c #7C776F",
"%	c #B3AAA1",
"&	c #0A7030",
"*	c #EBA724",
"                                ",
"                                ",
"       ++++++++++++             ",
"       +@@@@@@@@@@+++           ",
"       +@@@@@@@@@@+++           ",
"       ++++++@@@@@@++           ",
"       ++++++@@@@@@++           ",
"          ++++@@@@+++++++       ",
"          +#####$$$$$$$$+       ",
"          +#####$$$$$$$$+       ",
"          +##++++++++++++++     ",
"          +$$+#####%%%%%%++     ",
"          +$$+#####%%%%%%++     ",
"          +$$+##++%++%++%++     ",
"          +$$+%%++%++%++%++     ",
"          +$$+%%++%++%++%++     ",
"          +$$+%%++%++%++%++     ",
"          +$$+%%%%%%%%%%%++     ",
"          +$$+%%%%%%%%%%%++     ",
"        +++++++++++++++++++     ",
"        +++++++++++++++++++     ",
"        ++&&&&**********+       ",
"        ++&&&&**+++++++++       ",
"        ++&&&&**+++++++++       ",
"        ++&&&&**++$$$$$$+       ",
"        ++&&&&**++$$$$$$+       ",
"        ++&&&&**++$$$$$$+       ",
"        ++******+++++%+++       ",
"        ++++++++++ +++++        ",
"        ++++++++++ +++++        ",
"                                ",
"                                "};
