/* XPM */
static char * coin_4_xpm[] = {
"32 32 6 1",
" 	c None",
".	c #000000",
"+	c #000000",
"@	c #FAFF6B",
"#	c #FEE761",
"$	c #FDFFBA",
"             ++++++             ",
"          +++@@@@@@+++          ",
"        ++@@@@@@@@@@@@++        ",
"       +@@@@@######@@@@@+       ",
"     ++@@@###$$$$$$###@@@++     ",
"    +@@@@#$$$$$$$$$$$$#@@@@+    ",
"    +@@@#$$$$$$$$$$$@@@#@@@+    ",
"   +@@@#$$$$$$$##$$@@@@$#@@@+   ",
"  +@@@#$$$$$$$$##$@@@@@$$#@@@+  ",
" +@@@#$$$$$$$######@@@$$@@#@@@+ ",
" +@@#$$$$$$$########@$$@@@@#@@+ ",
" +@@#$$$$$$##########@@@@@@#@@+ ",
"+@@#$$$$$$$###@##@###@@@@@@@#@@+",
"+@@#$$$$$$$###@##@@##@@@@@@@#@@+",
"+@@#$$$$$$$###@##@@@@@@@@@@@#@@+",
"+@@#$$$$$$@@#######@@@@@@@@@#@@+",
"+@@#$$$$$@@@@#######@@@@@@@@#@@+",
"+@@#$$$$@@@@@@@##@###@@@@@@@#@@+",
"+@@#$$$@@@@##@@##@###@@@@@@@#@@+",
"+@@#$$@@@$$###@##@###@@@@@@@#@@+",
" +@@#@@@$$@##########@@@@@@#@@+ ",
" +@@#$$$$@@@########@@@@@@@#@@+ ",
" +@@@#$@@@@@@######@@@@@@@#@@@+ ",
"  +@@@#@@@@@@@@##@@@@@@@@#@@@+  ",
"   +@@@#@@@@@@@##@@@@@@@#@@@+   ",
"    +@@@#@@@@@@@@@@@@@@#@@@+    ",
"    +@@@@#@@@@@@@@@@@@#@@@@+    ",
"     ++@@@###@@@@@@###@@@++     ",
"       +@@@@@######@@@@@+       ",
"        ++@@@@@@@@@@@@++        ",
"          +++@@@@@@+++          ",
"             ++++++             "};
