/* XPM */
static char * coin_2_xpm[] = {
"32 32 6 1",
" 	c None",
".	c #000000",
"+	c #000000",
"@	c #FEE761",
"#	c #FAFF6B",
"$	c #FDFFBA",
"             ++++++             ",
"             +@@@@+             ",
"             +#@#@+             ",
"             +##@@+             ",
"             +###@+             ",
"             +###@+             ",
"             +####+             ",
"             +####+             ",
"             +####+             ",
"             +####+             ",
"             +#$##+             ",
"             +#$##+             ",
"             +#$$#+             ",
"             +####+             ",
"             +##$#+             ",
"             +##$#+             ",
"             +####+             ",
"             +##$#+             ",
"             +####+             ",
"             +####+             ",
"             +####+             ",
"             +####+             ",
"             +@###+             ",
"             +####+             ",
"             +@###+             ",
"             +@###+             ",
"             +@###+             ",
"             +@###+             ",
"             +@@##+             ",
"             +@@@#+             ",
"             +@@@@+             ",
"             ++++++             "};
