/* XPM */
static char * wall_xpm[] = {
"32 32 657 2",
"  	c #6F624F",
". 	c #716351",
"+ 	c #6D5C49",
"@ 	c #685743",
"# 	c #65533E",
"$ 	c #5C4832",
"% 	c #56422B",
"& 	c #56422C",
"* 	c #59462E",
"= 	c #5C4830",
"- 	c #5E4A32",
"; 	c #5F4B32",
"> 	c #5F4C32",
", 	c #614D33",
"' 	c #624D32",
") 	c #614C32",
"! 	c #604B30",
"~ 	c #5F4A30",
"{ 	c #5E492F",
"] 	c #5D482F",
"^ 	c #5B472E",
"/ 	c #58432C",
"( 	c #56412B",
"_ 	c #523F29",
": 	c #594731",
"< 	c #6C5C49",
"[ 	c #6F614E",
"} 	c #685742",
"| 	c #968F81",
"1 	c #989083",
"2 	c #958C7F",
"3 	c #7D705F",
"4 	c #7E6A4C",
"5 	c #98825D",
"6 	c #98835E",
"7 	c #9A8560",
"8 	c #9B8663",
"9 	c #9D8964",
"0 	c #9F8C67",
"a 	c #9E8C67",
"b 	c #9E8B67",
"c 	c #9E8B66",
"d 	c #9D8A65",
"e 	c #9D8965",
"f 	c #9D8864",
"g 	c #9C8763",
"h 	c #9B8763",
"i 	c #9A8663",
"j 	c #7F6D4F",
"k 	c #988F83",
"l 	c #968E80",
"m 	c #675642",
"n 	c #65533D",
"o 	c #847764",
"p 	c #827561",
"q 	c #72614A",
"r 	c #70583B",
"s 	c #876E4A",
"t 	c #8B714D",
"u 	c #8E734F",
"v 	c #8E7450",
"w 	c #8E7550",
"x 	c #8E7651",
"y 	c #907852",
"z 	c #907853",
"A 	c #917953",
"B 	c #917952",
"C 	c #8D724F",
"D 	c #8B724E",
"E 	c #886F4B",
"F 	c #876F4B",
"G 	c #72614B",
"H 	c #837764",
"I 	c #64523C",
"J 	c #7E715D",
"K 	c #72624C",
"L 	c #6F583B",
"M 	c #7C6343",
"N 	c #896F4C",
"O 	c #8C724F",
"P 	c #917954",
"Q 	c #8F7752",
"R 	c #8B734D",
"S 	c #8A724C",
"T 	c #6F593B",
"U 	c #7D705C",
"V 	c #5F4C35",
"W 	c #695841",
"X 	c #715B3D",
"Y 	c #846C4B",
"Z 	c #705A3D",
"` 	c #705A3C",
" .	c #715B3C",
"..	c #745C3E",
"+.	c #765D40",
"@.	c #776041",
"#.	c #786141",
"$.	c #786041",
"%.	c #776040",
"&.	c #786040",
"*.	c #775F40",
"=.	c #775F3F",
"-.	c #755D3E",
";.	c #725B3C",
">.	c #856D4B",
",.	c #725B3D",
"'.	c #755E40",
").	c #886F4A",
"!.	c #8D7550",
"~.	c #7B6546",
"{.	c #59442B",
"].	c #5E482D",
"^.	c #5F482D",
"/.	c #543E26",
"(.	c #5F472C",
"_.	c #60482D",
":.	c #5F482C",
"<.	c #5A4229",
"[.	c #594129",
"}.	c #5E452C",
"|.	c #5E462C",
"1.	c #5F462C",
"2.	c #5F472B",
"3.	c #553D26",
"4.	c #5F452B",
"5.	c #5E462B",
"6.	c #59422A",
"7.	c #7C6748",
"8.	c #8A704C",
"9.	c #776043",
"0.	c #5C472D",
"a.	c #8D7450",
"b.	c #7A6546",
"c.	c #684F30",
"d.	c #695030",
"e.	c #533D24",
"f.	c #674F30",
"g.	c #685031",
"h.	c #6B5232",
"i.	c #695031",
"j.	c #5D452A",
"k.	c #664D30",
"l.	c #684E30",
"m.	c #674F2F",
"n.	c #584128",
"o.	c #7E684A",
"p.	c #907854",
"q.	c #8C734E",
"r.	c #513C26",
"s.	c #5B472D",
"t.	c #886E4A",
"u.	c #8D744F",
"v.	c #7A6445",
"w.	c #634C30",
"x.	c #755B3A",
"y.	c #775D3C",
"z.	c #785D3B",
"A.	c #5D462A",
"B.	c #7E6441",
"C.	c #7B603E",
"D.	c #7C603E",
"E.	c #7D613F",
"F.	c #7C613F",
"G.	c #6C5235",
"H.	c #7C603D",
"I.	c #7C613E",
"J.	c #7B5F3E",
"K.	c #7E6240",
"L.	c #7E613F",
"M.	c #795D3C",
"N.	c #644A2F",
"O.	c #917955",
"P.	c #523C26",
"Q.	c #5B462D",
"R.	c #876E49",
"S.	c #876F4A",
"T.	c #8C744F",
"U.	c #7A6345",
"V.	c #674F33",
"W.	c #806441",
"X.	c #60482C",
"Y.	c #846844",
"Z.	c #856945",
"`.	c #765A3B",
" +	c #785D3E",
".+	c #876A46",
"++	c #856845",
"@+	c #866846",
"#+	c #856744",
"$+	c #624A2E",
"%+	c #876C47",
"&+	c #886B47",
"*+	c #836743",
"=+	c #684E32",
"-+	c #7E674A",
";+	c #917854",
">+	c #8B714E",
",+	c #8B704D",
"'+	c #533C25",
")+	c #866E4A",
"!+	c #675034",
"~+	c #7F6341",
"{+	c #836644",
"]+	c #826644",
"^+	c #664C2F",
"/+	c #866945",
"(+	c #785D3C",
"_+	c #7C6241",
":+	c #896C4A",
"<+	c #876947",
"[+	c #856846",
"}+	c #674D31",
"|+	c #886C47",
"1+	c #886D48",
"2+	c #826844",
"3+	c #684F33",
"4+	c #7D674A",
"5+	c #907855",
"6+	c #89704D",
"7+	c #5D472C",
"8+	c #866D49",
"9+	c #8B724F",
"0+	c #7A6245",
"a+	c #695135",
"b+	c #816542",
"c+	c #836744",
"d+	c #694E31",
"e+	c #866946",
"f+	c #876A47",
"g+	c #785E3D",
"h+	c #7D6543",
"i+	c #8B6E4B",
"j+	c #886B48",
"k+	c #886C48",
"l+	c #886A47",
"m+	c #695033",
"n+	c #886D47",
"o+	c #896D47",
"p+	c #7D6748",
"q+	c #543A25",
"r+	c #5D482D",
"s+	c #866E49",
"t+	c #8B734E",
"u+	c #796244",
"v+	c #695134",
"w+	c #8F7652",
"x+	c #795F3D",
"y+	c #7F6644",
"z+	c #8B704B",
"A+	c #896E48",
"B+	c #6A5032",
"C+	c #886C46",
"D+	c #876B46",
"E+	c #826743",
"F+	c #6A5133",
"G+	c #8E7652",
"H+	c #896F4B",
"I+	c #5D472E",
"J+	c #866947",
"K+	c #876A48",
"L+	c #876C48",
"M+	c #8B704C",
"N+	c #856946",
"O+	c #6A5033",
"P+	c #886A46",
"Q+	c #826643",
"R+	c #6B5034",
"S+	c #7E6748",
"T+	c #8D7551",
"U+	c #543924",
"V+	c #5D482E",
"W+	c #846A48",
"X+	c #846B48",
"Y+	c #8A724D",
"Z+	c #796243",
"`+	c #685033",
" @	c #806542",
".@	c #6A4E32",
"+@	c #8F7651",
"@@	c #866A47",
"#@	c #866A46",
"$@	c #806745",
"%@	c #8B6F4B",
"&@	c #876B47",
"*@	c #6A5134",
"=@	c #6B5234",
"-@	c #7D6647",
";@	c #866D4A",
">@	c #533824",
",@	c #5F492F",
"'@	c #826846",
")@	c #896F4D",
"!@	c #786143",
"~@	c #674E33",
"{@	c #7F6340",
"]@	c #816541",
"^@	c #816441",
"/@	c #856A46",
"(@	c #795E3D",
"_@	c #8A6F4B",
":@	c #6B5033",
"<@	c #6B5134",
"[@	c #7C6546",
"}@	c #8C7350",
"|@	c #513724",
"1@	c #5E472D",
"2@	c #806845",
"3@	c #876F4C",
"4@	c #674D32",
"5@	c #7F6240",
"6@	c #6A4F32",
"7@	c #846945",
"8@	c #846A46",
"9@	c #785D3D",
"0@	c #7F6645",
"a@	c #896E4A",
"b@	c #866B46",
"c@	c #826542",
"d@	c #7A6244",
"e@	c #846A47",
"f@	c #513723",
"g@	c #5C432B",
"h@	c #806744",
"i@	c #866E4B",
"j@	c #775F43",
"k@	c #664C31",
"l@	c #7E623F",
"m@	c #806440",
"n@	c #836845",
"o@	c #846845",
"p@	c #775D3D",
"q@	c #896D4A",
"r@	c #694F33",
"s@	c #776042",
"t@	c #5A412A",
"u@	c #7E6642",
"v@	c #856D49",
"w@	c #765D41",
"x@	c #654A2F",
"y@	c #806340",
"z@	c #846745",
"A@	c #836745",
"B@	c #775C3C",
"C@	c #7E6544",
"D@	c #684E33",
"E@	c #846744",
"F@	c #674E32",
"G@	c #765F41",
"H@	c #886F4C",
"I@	c #836A47",
"J@	c #503623",
"K@	c #584029",
"L@	c #7B6441",
"M@	c #7C6441",
"N@	c #755C40",
"O@	c #64492F",
"P@	c #826543",
"Q@	c #75593A",
"R@	c #7C6242",
"S@	c #7F6441",
"T@	c #7F6542",
"U@	c #806541",
"V@	c #7E6340",
"W@	c #745B3F",
"X@	c #866C4A",
"Y@	c #503622",
"Z@	c #563F28",
"`@	c #7A6340",
" #	c #7A6240",
".#	c #826A47",
"+#	c #745B3E",
"@#	c #64492E",
"##	c #7A5E3C",
"$#	c #7C5F3E",
"%#	c #674C2F",
"&#	c #8D7350",
"*#	c #816543",
"=#	c #735738",
"-#	c #7B6041",
";#	c #7D603E",
">#	c #7D623F",
",#	c #7D603F",
"'#	c #7B5F3D",
")#	c #7F6440",
"!#	c #654D31",
"~#	c #735B3E",
"{#	c #866B4A",
"]#	c #836947",
"^#	c #4F3521",
"/#	c #563E26",
"(#	c #816846",
"_#	c #61472C",
":#	c #795E3C",
"<#	c #654A2E",
"[#	c #7C623F",
"}#	c #7D6240",
"|#	c #7D6340",
"1#	c #715637",
"2#	c #795E3F",
"3#	c #806442",
"4#	c #7B5E3C",
"5#	c #795E3B",
"6#	c #795C3A",
"7#	c #634B2F",
"8#	c #7D623E",
"9#	c #785E3B",
"0#	c #62492E",
"a#	c #72593D",
"b#	c #846A49",
"c#	c #826746",
"d#	c #816646",
"e#	c #4F3422",
"f#	c #7A6040",
"g#	c #795F3F",
"h#	c #806746",
"i#	c #61462B",
"j#	c #755A39",
"k#	c #775C3B",
"l#	c #785C3B",
"m#	c #63482D",
"n#	c #7C5F3D",
"o#	c #6E5435",
"p#	c #745B3B",
"q#	c #785A39",
"r#	c #785A3A",
"s#	c #775A39",
"t#	c #61492D",
"u#	c #7A5F3E",
"v#	c #60472D",
"w#	c #836A48",
"x#	c #806644",
"y#	c #4F3421",
"z#	c #553C26",
"A#	c #725A3D",
"B#	c #5E432A",
"C#	c #725838",
"D#	c #745A3A",
"E#	c #5D432A",
"F#	c #7A5D3C",
"G#	c #7B5E3D",
"H#	c #6D5134",
"I#	c #725839",
"J#	c #745636",
"K#	c #755737",
"L#	c #765937",
"M#	c #735837",
"N#	c #745939",
"O#	c #765A39",
"P#	c #715636",
"Q#	c #5E432B",
"R#	c #71573C",
"S#	c #806646",
"T#	c #7C6243",
"U#	c #7C6240",
"V#	c #4D3321",
"W#	c #543B26",
"X#	c #735A3E",
"Y#	c #5D422A",
"Z#	c #705637",
"`#	c #755939",
" $	c #745839",
".$	c #5B3F27",
"+$	c #785B3B",
"@$	c #6C5133",
"#$	c #6F5637",
"$$	c #775B39",
"%$	c #725535",
"&$	c #725635",
"*$	c #705434",
"=$	c #5B4128",
"-$	c #735937",
";$	c #6F5636",
">$	c #5C4229",
",$	c #6F5539",
"'$	c #7B6040",
")$	c #795E3E",
"!$	c #4D3320",
"~$	c #523924",
"{$	c #735A3B",
"]$	c #735A3A",
"^$	c #7C6443",
"/$	c #725A3E",
"($	c #5B4129",
"_$	c #6E5334",
":$	c #725636",
"<$	c #725737",
"[$	c #553B22",
"}$	c #7F6543",
"|$	c #785B3A",
"1$	c #775B3A",
"2$	c #684D31",
"3$	c #6F5333",
"4$	c #6F5233",
"5$	c #6D5232",
"6$	c #6A5030",
"7$	c #573D24",
"8$	c #705735",
"9$	c #705535",
"0$	c #6D5333",
"a$	c #5B4127",
"b$	c #6D5337",
"c$	c #7E6343",
"d$	c #4D321F",
"e$	c #725938",
"f$	c #7B6341",
"g$	c #715A3D",
"h$	c #583F27",
"i$	c #684E31",
"j$	c #6A4F31",
"k$	c #4E331F",
"l$	c #7A603F",
"m$	c #6F5536",
"n$	c #705636",
"o$	c #6F5535",
"p$	c #62482E",
"q$	c #694E2F",
"r$	c #664C2E",
"s$	c #654B2D",
"t$	c #523721",
"u$	c #694F30",
"v$	c #694F31",
"w$	c #674D2F",
"x$	c #593E26",
"y$	c #755A3A",
"z$	c #533B29",
"A$	c #61462C",
"B$	c #715737",
"C$	c #79603E",
"D$	c #6F563A",
"E$	c #503621",
"F$	c #563C25",
"G$	c #553C24",
"H$	c #563B25",
"I$	c #4C301E",
"J$	c #62472E",
"K$	c #5A3F27",
"L$	c #533822",
"M$	c #553A24",
"N$	c #593D25",
"O$	c #583D25",
"P$	c #573C25",
"Q$	c #583C24",
"R$	c #4E321F",
"S$	c #573C24",
"T$	c #523620",
"U$	c #74593A",
"V$	c #64482E",
"W$	c #4C311F",
"X$	c #5D4937",
"Y$	c #6F5D4C",
"Z$	c #60452B",
"`$	c #6C5234",
" %	c #674E34",
".%	c #6D5338",
"+%	c #6D5339",
"@%	c #6E5339",
"#%	c #6F543A",
"$%	c #70553B",
"%%	c #71563C",
"&%	c #73593E",
"*%	c #73593D",
"=%	c #74593E",
"-%	c #735A3D",
";%	c #72563C",
">%	c #70553A",
",%	c #70543A",
"'%	c #6F5439",
")%	c #6F5339",
"!%	c #6A4E35",
"~%	c #6F5437",
"{%	c #6F5C4A",
"]%	c #553E2C",
"^%	c #5E4A38",
"/%	c #847867",
"(%	c #71604F",
"_%	c #62472F",
":%	c #785D40",
"<%	c #785E3F",
"[%	c #796040",
"}%	c #7C6142",
"|%	c #7D6243",
"1%	c #7E6445",
"2%	c #7E6645",
"3%	c #816947",
"4%	c #836A49",
"5%	c #836B48",
"6%	c #826B47",
"7%	c #826947",
"8%	c #816847",
"9%	c #816747",
"0%	c #816746",
"a%	c #806545",
"b%	c #7F6445",
"c%	c #7E6243",
"d%	c #7D6142",
"e%	c #795F41",
"f%	c #795E40",
"g%	c #7A5F42",
"h%	c #634931",
"i%	c #715E4E",
"j%	c #877A69",
"k%	c #817563",
"l%	c #827666",
"m%	c #726050",
"n%	c #634930",
"o%	c #705537",
"p%	c #755B3D",
"q%	c #775D3E",
"r%	c #7A6241",
"s%	c #7C6442",
"t%	c #7C6341",
"u%	c #7A6140",
"v%	c #785E3E",
"w%	c #775B3C",
"x%	c #745A3B",
"y%	c #72583A",
"z%	c #705538",
"A%	c #644930",
"B%	c #736050",
"C%	c #877969",
"D%	c #877967",
"E%	c #5D4836",
"F%	c #726452",
"G%	c #736452",
"H%	c #7A6E5D",
"I%	c #6E5C4C",
"J%	c #61462D",
"K%	c #755B3C",
"L%	c #785F3F",
"M%	c #7A6041",
"N%	c #7B6241",
"O%	c #796140",
"P%	c #795F40",
"Q%	c #765B3C",
"R%	c #71573A",
"S%	c #61462E",
"T%	c #6A5746",
"U%	c #7B6E5C",
"V%	c #796B58",
"W%	c #786A56",
"X%	c #5C4836",
"Y%	c #5B4634",
"Z%	c #533C2A",
"`%	c #523A29",
" &	c #523928",
".&	c #513828",
"+&	c #4D3422",
"@&	c #4B311E",
"#&	c #4C321F",
"$&	c #4B311F",
"%&	c #4C3220",
"&&	c #4D311F",
"*&	c #4D3220",
"=&	c #523827",
"-&	c #533928",
";&	c #543B28",
">&	c #543C29",
"  . + @ # $ % & & * = - ; > , ' ) ) ! ~ { ] ^ / ( _ : # @ < . [ ",
"} | 1 2 3 4 5 6 7 8 9 0 0 0 a b b c d e e f g g h i j 3 2 k l m ",
"n o p q r s t u v w x y y z A B y z z y z x C D E E F r G p H # ",
"I J K L M s N O v y y B A A z P z z z y Q Q Q x R S E M T K U I ",
"V W X Y Z `  ...+.@.#.#.$.$.%.$.$.&.&.&.&.*.=.*.*.-.;.X >.,.W V ",
"= '.).!.~.{.].^.^./.(.(.(._.:.<.[.}.|.(.1.2.3.4.|.5.6.7.x 8.9.% ",
"0.).).a.b.].c.c.d.e.f.g.g.h.i.5.j.k.l.c.c.m.n.l.c.c.|.o.p.q.D r.",
"s.).t.u.v.w.x.y.z.A.B.C.D.E.F.G.G.C.H.D.I.J.1.K.L.M.N.o.O.D t P.",
"Q.R.S.T.U.V.E.W.W.X.t Y.Z.Z.Z.`. +.+++Z.@+#+$+%+&+*+=+-+;+>+,+'+",
"Q.s )+T.v.!+~+{+]+^+q.Z./+Z./+(+_+:+<+<+@+[+}+|+1+2+3+4+5+,+6+'+",
"7+8+8+9+0+a+b+{+c+d+x e+e+<+f+g+h+i+j+k+l+Z.m+n+o+*+m+p+z ,+,+q+",
"r+s+s+t+u+v+b+c+c+d+w+<+<+l+l+x+y+z+1+A+.+@+B+C+D+E+F+p+G+H+H+q+",
"I+8+8+D u+m+b+c+c+B+Q J+K+L+%+x+y+M+k+1+|+N+O+P+D+Q+R+S+T+H+E U+",
"V+W+X+Y+Z+`+ @Q+{+.@+@J+@@#@#@g+$@%@&@&@f+N+*@&@.+Q+=@-@a.s ;@>@",
",@'@'@)@!@~@{@]@^@B++@/@/@/@Z.(@$@_@#@&@#@++:@%+#@Q+<@[@}@s X+|@",
"1@$@2@3@9.4@5@^@^@6@+@7@8@N+N+9@0@a@N+e+e+++O+b@#@c@O+d@>+;@e@f@",
"g@h@h@i@j@k@l@m@m@.@x n@o@o@o@p@y+q@o@o@o@{+r@Z.Z.b+r@s@6+8+e@f@",
"t@u@u@v@w@x@F.{@y@d+w z@A@A@z@B@C@1+*+c+Q+]@D@E@E@~+F@G@H@X+I@J@",
"K@L@M@W+N@O@J.K.K.d+v ]+]+]+P@Q@R@e+S@T@U@V@4@P@c@l@}+W@X@I@I@Y@",
"Z@`@ #.#+#@###$#I.%#&#*#W.]@U@=#-#c+;#>#,#'#^+)#)#I.!#~#{#]#'@^#",
"/# # #(#+#_#x.:#:#<#>+[#}#|#>#1#2#3#4###5#6#7#I.8#9#0#a#b#c#d#e#",
"3.f#g#h#+#i#j#k#l#m#H@n#;#;#$#o#p#D.q#r#s#s#t#(@u#j#v#a#w#h@x#y#",
"z#p@p@C@A#B#C#x.D#E#)+F#J.G#G#H#I###J#K#L#M#E#N#O#P#Q#R#S#T#U#V#",
"W#p#p#C@X#Y#Z#`# $.$'@+$M.M.F#@$#$$$%$%$&$*$=$-$-$;$>$,$C@'$)$!$",
"~${$]$^$/$($_$:$<$[$}$|$l#l#1$2$F+M#3$4$5$6$7$8$9$0$a$b$c$'$)$d$",
"^#C#e$f$g$h$i$j$6@k$l$m$P#n$o$4.p$_$q$q$r$s$t$u$v$w$x$b$_+9@y$d$",
"z$A$B$C$D$E$F$G$H$I$J$.$.$K$K$L$M$.$N$O$P$Q$R$S$S$S$T$b$l$U$V$W$",
"X$Y$Z$`$ %.%+%@%@%#%@%$%%%&%&%*%a#*%=%-%a#;%>%,%'%)%)%!%~%J${%]%",
"^%/%(%_%:%<%[%}%|%1%2%h#3%4%5%6%7%8%9%0%a%b%c%d%}%e%f%g%h%i%j%X$",
"X$k%l%m%n%o%I#p%q%e%r%r%f$s%L@t%t%u%g#v% + +w%w%x%y%z%A%B%C%D%E%",
"E%F%G%H%I%J%I#K%q%L%M%r% #r%`@f$N%O%P%v%9@9@w%Q%{$R%S%T%U%V%W%X%",
"Y%Z%`% &.&+&@&@&#&$&$&%&W$W$&&*&*&*&*&*&d$d$d$d$d$d$e#=&-&-&;&>&"};
