/* XPM */
static char * waystone_xpm[] = {
"32 32 285 2",
"  	c None",
". 	c #5E4937",
"+ 	c #594331",
"@ 	c #796A5B",
"# 	c #837668",
"$ 	c #533C2A",
"% 	c #5D4937",
"& 	c #70604F",
"* 	c #958C7F",
"= 	c #968D80",
"- 	c #766757",
"; 	c #978E81",
"> 	c #563F2E",
", 	c #6D5D4C",
"' 	c #716251",
") 	c #726252",
"! 	c #736353",
"~ 	c #7A6C5C",
"{ 	c #887C6E",
"] 	c #887D6F",
"^ 	c #8D8275",
"/ 	c #968D81",
"( 	c #92897D",
"_ 	c #84786A",
": 	c #655241",
"< 	c #6A5848",
"[ 	c #827668",
"} 	c #8D8477",
"| 	c #857B6B",
"1 	c #776959",
"2 	c #786A5B",
"3 	c #7E7062",
"4 	c #93897C",
"5 	c #958C80",
"6 	c #92897E",
"7 	c #91887D",
"8 	c #7C6F61",
"9 	c #685646",
"0 	c #796C5E",
"a 	c #8A8074",
"b 	c #8E857A",
"c 	c #8E8578",
"d 	c #877C70",
"e 	c #85796D",
"f 	c #8B8175",
"g 	c #897E73",
"h 	c #91887C",
"i 	c #91897D",
"j 	c #655242",
"k 	c #786C5F",
"l 	c #796F62",
"m 	c #877D72",
"n 	c #887E73",
"o 	c #7B6F65",
"p 	c #75685E",
"q 	c #2BCAF1",
"r 	c #7C7066",
"s 	c #655343",
"t 	c #786E61",
"u 	c #7D7367",
"v 	c #898074",
"w 	c #786B61",
"x 	c #2ACAF1",
"y 	c #2ACCF1",
"z 	c #2AC9F1",
"A 	c #8F867B",
"B 	c #887E72",
"C 	c #716152",
"D 	c #645242",
"E 	c #83786D",
"F 	c #2AC9F0",
"G 	c #2AC7F1",
"H 	c #7A6D5F",
"I 	c #635141",
"J 	c #867C71",
"K 	c #72655A",
"L 	c #29C8EE",
"M 	c #29C8EF",
"N 	c #8E8378",
"O 	c #8D8378",
"P 	c #90867B",
"Q 	c #83786E",
"R 	c #29C6EF",
"S 	c #61503F",
"T 	c #80756A",
"U 	c #28C7ED",
"V 	c #29C7EE",
"W 	c #8B7F75",
"X 	c #6C5E53",
"Y 	c #7E7267",
"Z 	c #938A7F",
"` 	c #419AAD",
" .	c #27C4ED",
"..	c #27C3EC",
"+.	c #604E3E",
"@.	c #766B5E",
"#.	c #847A6D",
"$.	c #27C3EB",
"%.	c #90867D",
"&.	c #4A8894",
"*.	c #26C4EB",
"=.	c #27C3E9",
"-.	c #5E4B3B",
";.	c #756B5E",
">.	c #73695C",
",.	c #26C1E8",
"'.	c #25C1E9",
").	c #867B6F",
"!.	c #8F8679",
"~.	c #25C0E9",
"{.	c #4095A6",
"].	c #4094A5",
"^.	c #23BEE8",
"/.	c #22BFE8",
"(.	c #867D73",
"_.	c #74675A",
":.	c #5E4C3B",
"<.	c #746A5D",
"[.	c #847A6C",
"}.	c #877E71",
"|.	c #24BCE8",
"1.	c #4598AA",
"2.	c #817569",
"3.	c #82786C",
"4.	c #897F73",
"5.	c #23BBE8",
"6.	c #22BAE8",
"7.	c #75675B",
"8.	c #5D4A3A",
"9.	c #706558",
"0.	c #6F6558",
"a.	c #72685B",
"b.	c #867C6F",
"c.	c #81766B",
"d.	c #22BAE7",
"e.	c #21B9E6",
"f.	c #45A0B3",
"g.	c #7F7467",
"h.	c #83796C",
"i.	c #73685E",
"j.	c #7D7469",
"k.	c #837A70",
"l.	c #847B71",
"m.	c #5C4939",
"n.	c #6E6457",
"o.	c #6E6357",
"p.	c #706659",
"q.	c #7E7467",
"r.	c #877D6F",
"s.	c #20B8E5",
"t.	c #20B9E5",
"u.	c #42A3B8",
"v.	c #76695D",
"w.	c #6F635A",
"x.	c #7F766B",
"y.	c #83796F",
"z.	c #766A5D",
"A.	c #5B4636",
"B.	c #6D6356",
"C.	c #6C6256",
"D.	c #6C6255",
"E.	c #857B6E",
"F.	c #1EB6E3",
"G.	c #1FB5E2",
"H.	c #7F7268",
"I.	c #7F7267",
"J.	c #837A6F",
"K.	c #1EB3E0",
"L.	c #7C7367",
"M.	c #7A7164",
"N.	c #7A7063",
"O.	c #796F61",
"P.	c #604D3D",
"Q.	c #5A4737",
"R.	c #675A4D",
"S.	c #6D6256",
"T.	c #82796C",
"U.	c #867C70",
"V.	c #1EB2E0",
"W.	c #1CB1E0",
"X.	c #604D3C",
"Y.	c #665D50",
"Z.	c #7A7062",
"`.	c #685E52",
" +	c #635A4E",
".+	c #716455",
"++	c #574230",
"@+	c #5A4535",
"#+	c #585046",
"$+	c #665D53",
"%+	c #7F7568",
"&+	c #706354",
"*+	c #5D4837",
"=+	c #5A4433",
"-+	c #5A4434",
";+	c #6A5F53",
">+	c #625950",
",+	c #635A4F",
"'+	c #796F60",
")+	c #5C4736",
"!+	c #5E4938",
"~+	c #665545",
"{+	c #756B5D",
"]+	c #584232",
"^+	c #675E52",
"/+	c #5F564B",
"(+	c #574D42",
"_+	c #53493F",
":+	c #574E44",
"<+	c #6A6154",
"[+	c #73695B",
"}+	c #655C4F",
"|+	c #6E6458",
"1+	c #6E6456",
"2+	c #6A6053",
"3+	c #63594C",
"4+	c #61584B",
"5+	c #60574A",
"6+	c #5A4B3C",
"7+	c #564131",
"8+	c #533B2A",
"9+	c #5B4A3B",
"0+	c #54493F",
"a+	c #554B41",
"b+	c #62594D",
"c+	c #665D51",
"d+	c #665C50",
"e+	c #665C4F",
"f+	c #655B4F",
"g+	c #63594D",
"h+	c #62594C",
"i+	c #60564A",
"j+	c #574535",
"k+	c #563F2F",
"l+	c #5F5549",
"m+	c #564B40",
"n+	c #53493E",
"o+	c #564D43",
"p+	c #655C50",
"q+	c #645A4E",
"r+	c #63584C",
"s+	c #61574B",
"t+	c #5F5448",
"u+	c #574434",
"v+	c #61584C",
"w+	c #54493E",
"x+	c #504539",
"y+	c #51473C",
"z+	c #544A40",
"A+	c #5A5147",
"B+	c #63594E",
"C+	c #61564A",
"D+	c #5A493B",
"E+	c #54493D",
"F+	c #50453A",
"G+	c #5A5248",
"H+	c #5D554A",
"I+	c #635B4F",
"J+	c #605649",
"K+	c #615649",
"L+	c #5F5447",
"M+	c #4D2D1B",
"N+	c #504439",
"O+	c #554C41",
"P+	c #554C42",
"Q+	c #595147",
"R+	c #5B5349",
"S+	c #5E5346",
"T+	c #5E5447",
"U+	c #523726",
"V+	c #523828",
"W+	c #4E3525",
"X+	c #4F3627",
"Y+	c #4F3727",
"Z+	c #4F3728",
"`+	c #50392A",
" @	c #513A2A",
".@	c #513A2B",
"+@	c #523B2C",
"@@	c #523C2C",
"#@	c #553E2E",
"$@	c #533B2B",
"%@	c #543B2B",
"&@	c #533A2A",
"*@	c #523929",
"                                                                ",
"                                  . .                           ",
"                              + @ # # $                         ",
"                          % & * = = = = $                       ",
"                        - ; = = = = = = = $                     ",
"                      > = = = = = = = = = = $                   ",
"                , ' ) ! ~ { ] ^ / = = * * ( _ :                 ",
"              < [ } } } | 1 2 3 4 ; 5 ( ( 6 7 8 $               ",
"            9 0 a b b b } c b d e f g 7 h i h 8 $               ",
"          j k l m b b b b b n o p q q q r h h 8 $               ",
"          s l t u v b b b n w x y x x x z z A B C               ",
"          D t t t m b b b E F F F z F z G F F b H $             ",
"          I t t t m b b J K L M N O P 7 Q R R b H $             ",
"          S t t t m b b T U U V W X Y b Z `  ...H $             ",
"          +.t t t @.#.#.T ..$.W W X ..b %.&.*.=.b H             ",
"        -.;.t t ;.>.#.#.T ,.'.W ).!.~.'.{.].^./.(._.            ",
"        :.;.;.<.>.>.[.[.}.|.|.1.2.3.4.5.5.6.6.(.(.7.            ",
"        8.9.0.a.>.>.[.[.b.c.d.e.f.g.h.h.i.j.k.l.(.7.            ",
"        m.n.o.p.a.>.q.[.[.r.s.t.t.u.v.v.w.j.j.x.y.z.A.          ",
"        m.B.C.D.n.n.>.[.h.h.E.F.G.G.H.I.J.K.L.M.N.O.P.          ",
"      Q.R.S.D.D.D.D.n.[.h.h.h.T.U.K.V.V.W.M.N.O.O.O.X.          ",
"      m.S.D.D.D.D.D.Y.h.T.T.T.3.3.q.Z.O.O.O.O.O.O.O.X.          ",
"      m.S.D.D.D.`.Y. +3.3.3.3.3.q.Z.O.O.Z.Z.Z.O..+X.++          ",
"      @+S.S.Y. + + + +#+#+$+3.%+O.O.O.O.Z.Z.&+*+=+$ $           ",
"      -+B.;+>+,+ + +#+#+#+#+#+,+O.O.O.O.'+)+!+~+{+>.>.-.        ",
"      ]+^+ + + +/+(+_+:+:+#+#+#+<+[+[+Y.}+|+1+2+3+4+5+6+7+      ",
"    8+9+ + + +/+(+_+_+0+a+#+#+#+b+c+d+e+}+f+g+3+h+4+i+i+j+      ",
"    k+ + + +l+m+n+_+_+n+o+#+#+#+/+p+d+p+}+f+q+r+s+i+l+t+u+      ",
"    k+ + +v+w+x+y+n+z+n+#+#+#+#+A+B+c+p+}+g+r+C+t+t+t+t+D+      ",
"    k+ +l+E+x+x+F+n+a+a+o+:+#+#+G+H+I+J+K+L+t+t+t+t+t+t+t+M+    ",
"    k+l+w+N+x+F+F+0+O+O+a+P+:+Q+R+R+ +S+T+L+L+t+t+t+t+t+S+M+    ",
"    U+V+W+X+Y+Z+Z+`+ @ @ @ @.@+@@@@@#@$@$@%@%@%@%@%@$@&@*@      "};
