/* XPM */
static char *player_tile_xpm[] = {
/* width height num_colors chars_per_pixel */
"32 32 9 1",
/* color definitions */
". c #000000",  /* background */
"k c #775544",  /* hair */
"f c #ffcc99",  /* face/hands */
"g c #333333",  /* glasses */
"c c #334455",  /* coat */
"b c #cc9933",  /* book cover */
"p c #ffffff",  /* book pages */
"s c #222222",  /* pants */
"x c #666666",  /* shoes/boots */

/* 32 rows of 32 characters (pixel data) */
"................................",
"................................",
"................................",
"................................",
"................................",
"................................",
"..............kkkkk.............",
".............kfgggfk............",
".............kfffffk............",
".............kfffffk............",
".............kfgggfk............",
"..............kkkkk.............",
"............cccccccccc..........",
"............cccccccccc..........",
"............cccfbppfcc..........",
"............cccbbppbcc..........",
"............cccfbppfcc..........",
"............cccccccccc..........",
"............cccccccccc..........",
"............cccccccccc..........",
"............cccccccccc..........",
"............cccccccccc..........",
"............cccccccccc..........",
"............cccccccccc..........",
"............ssssssssss..........",
"............ssssssssss..........",
"............xxxxxxxxxx..........",
"................................",
"................................",
"................................",
"................................",
"................................"
};
